<?xml version="1.0" encoding="utf-8" ?><svg xmlns="http://www.w3.org/2000/svg" xmlns:xlink="http://www.w3.org/1999/xlink" width="373.8" height="355.9" viewBox="340.6 289.6 373.8 355.9"><path fill="#9925C1" d="M524.471 308.218C536.173 307.806 552.124 309.693 563.443 312.286C603.362 321.642 637.898 346.537 659.394 381.451C712.328 466.304 676.731 563.185 596.209 613.733L601.869 605.144C622.011 571.784 619.872 536.1 598.694 503.798C583.009 479.874 558.311 464.955 530.154 460.599C517.889 458.701 505.34 458.585 493.586 454.177C466.626 443.922 443.794 418.229 442.354 388.626C441.368 368.354 446.89 349.902 460.526 334.684C477.272 315.997 500.137 309.491 524.471 308.218Z"/><path fill="#9925C1" d="M425.767 356.466C426.685 357.965 423.911 369.458 423.633 371.814C420.669 396.919 427.673 420.844 443.365 440.611C456.991 457.935 476.034 470.186 497.447 475.405C504.401 477.039 513.619 478.396 520.777 478.828C563.729 481.422 601.623 522.551 595.773 567.144C593.477 584.62 584.279 600.448 570.233 611.096C548.329 627.647 520.129 628.51 494.041 624.859C481.564 622.667 474.215 620.42 462.247 616.467C460.443 617.762 458.622 619.035 456.785 620.284C436.655 633.889 413.751 643.449 389.069 638.679C391.267 636.14 393.606 633.433 395.618 630.754C405.916 617.024 410.317 599.755 407.845 582.77C405.476 579.69 401.166 575.277 398.436 572.104C392.595 565.355 387.322 558.134 382.673 550.515C362.497 517.704 356.105 478.25 364.889 440.748C373.125 406.973 396.037 374.6 425.767 356.466Z"/><path fill="#9925C1" d="M373.111 339.133C386.285 337.979 395.114 350.158 388.791 361.959C384.315 370.311 374.62 380.043 365.372 382.854C349.896 383.566 342.558 369.625 351.347 357.114C355.973 350.527 365.343 341.655 373.111 339.133Z"/><path fill="#9925C1" d="M361.449 292.12C378.974 291.566 405.497 325.274 376.502 334.676C367.101 334.709 362.891 329.029 356.477 323.253C345.117 313.023 343.486 295.942 361.449 292.12Z"/><path fill="#9925C1" d="M414.81 292.631C424.525 292.301 429.443 297.597 435.785 304.07C445.745 314.236 447.406 329.203 431.271 334.032C411.802 335.241 385.632 300.593 414.81 292.631Z"/></svg>